inDegrees=yes
name=ik_Shooting_orientations
DataType=double
version=3
OpenSimVersion=4.3-2021-08-27-4bc7ad9
endheader
time	pelvis_tilt	pelvis_list	pelvis_rotation	pelvis_tx	pelvis_ty	pelvis_tz	hip_flexion_r	hip_adduction_r	hip_rotation_r	knee_angle_r	knee_angle_r_beta	ankle_angle_r	subtalar_angle_r	mtp_angle_r	hip_flexion_l	hip_adduction_l	hip_rotation_l	knee_angle_l	knee_angle_l_beta	ankle_angle_l	subtalar_angle_l	mtp_angle_l	lumbar_extension	lumbar_bending	lumbar_rotation	arm_flex_r	arm_add_r	arm_rot_r	elbow_flex_r	pro_sup_r	wrist_flex_r	wrist_dev_r	arm_flex_l	arm_add_l	arm_rot_l	elbow_flex_l	pro_sup_l	wrist_flex_l	wrist_dev_l
7.39	8.154644188293538	8.121993292634121	62.99234405763619	0	0.9399999999999999	0	45.00038162458743	-9.999999988573347	0	60.00073939568333	1.047210456085747	-4.999999851047217	0	0	45.00038162458743	-9.999999988573347	0	60.00073939568333	1.047210456085747	-4.999999851047217	0	0	-7.906631626304011	1.436102676044869	-0.4322462375078066	27.16147792003234	45.68019455771723	47.58337514461495	79.24617091525836	45.00000025533499	0	0	0	-15.00673939986315	0	75.00069068288198	45.00000025533499	0	0
7.4	8.149303027586191	8.137119762595388	62.97177238606979	0	0.9399999999999999	0	45.00036329015136	-9.999999988573347	0	60.00071380001302	1.047210009357026	-4.999999851047217	0	0	45.00036329015136	-9.999999988573347	0	60.00071380001302	1.047210009357026	-4.999999851047217	0	0	-7.913578123547697	1.422835167349429	-0.4325350754865291	85.06952053749662	11.26003991298411	35.83435070581757	149.9972229881178	45.00000025533559	0	0	0	-15.00655649733919	0	75.00066594090947	45.00000025533559	0	0
7.41	8.149704066860425	8.166506505057557	62.98606019745958	0	0.9399999999999999	0	45.00034922920635	-9.999999988573343	0	60.00069216358564	1.04720963173013	-4.999999851047217	0	0	45.00034922920635	-9.999999988573343	0	60.00069216358564	1.04720963173013	-4.999999851047217	0	0	9.953277790737904	2.773123268010594	-1.101400827601458	89.99332590466607	5.119462975897974	-8.549286826276751	149.9987609653001	45.000000255336	0	0	0	-15.00640706724388	0	75.00064696592304	45.000000255336	0	0
7.42	8.172621007252408	8.198763898795907	62.98534097131691	0	0.9399999999999999	0	45.0003431862283	-9.999999988573343	0	60.00068381194182	1.047209485966447	-4.999999851047217	0	0	45.0003431862283	-9.999999988573343	0	60.00068381194182	1.047209485966447	-4.999999851047217	0	0	4.339240237840371	1.780564631938361	-0.8022577908109741	89.99034625842056	2.404919538097533	-16.74642628675377	149.9984620240899	45.00000025533618	0	0	0	-15.00634494457175	0	75.00063881103665	45.00000025533618	0	0
7.43	8.158057455955195	8.193557457829995	62.98137460000967	0	0.9399999999999999	0	45.00033874906581	-9.999999988573341	0	60.00067687075641	1.047209364819907	-4.999999851047217	0	0	45.00033874906581	-9.999999988573341	0	60.00067687075641	1.047209364819907	-4.999999851047217	0	0	-2.874035531375337	2.497461938024128	-0.6198471015274681	89.97668689761591	12.80670239884205	0.4202286195880986	149.9979586513621	45.00000025533628	0	0	0	-15.00629557639861	0	75.00063282316523	45.00000025533628	0	0
7.44	8.168326635872059	8.201043628784245	62.99478975269331	0	0.9399999999999999	0	45.00033472069497	-9.999999988573341	0	60.00067072519202	1.047209257559575	-4.999999851047217	0	0	45.00033472069497	-9.999999988573341	0	60.00067072519202	1.047209257559575	-4.999999851047217	0	0	-8.01330671433502	1.394765962671378	-0.456316277881377	72.77757132096491	30.0456819310447	32.57786933982411	149.9964860245247	45.0000002553364	0	0	0	-15.00625121579567	0	75.00062738695115	45.0000002553364	0	0
7.45	8.178635884573493	8.213714098416242	62.98215246611041	0	0.9399999999999999	0	45.00027476071387	-9.999999988573339	0	60.00057818579758	1.047207642442454	-4.999999851047217	0	0	45.00027476071387	-9.999999988573339	0	60.00057818579758	1.047207642442454	-4.999999851047217	0	0	-7.985040326182864	1.952451863627351	-5.216975545724554	-7.405389067653267	89.89757548645436	47.60487205822452	19.59690130982987	45.00000025533798	0	0	0	-15.00558204007243	0	75.00054647202468	45.00000025533798	0	0
7.46	8.183124165924891	8.227926523331991	62.97372341030869	0	0.9399999999999999	0	45.00025222155392	-9.999999988573339	0	60.00054276524271	1.047207024237148	-4.999999851047217	0	0	45.00025222155392	-9.999999988573339	0	60.00054276524271	1.047207024237148	-4.999999851047217	0	0	-8.034361873616522	1.40167259702186	-0.4261469288694609	33.43250335370472	54.31674412990338	-20.59522725811396	0.004782141576034874	45.00000025533841	0	0	0	-15.00531037643872	0	75.00051605580894	45.00000025533841	0	0
7.47	8.19134510192308	8.248160882603033	62.96502644551946	0	0.9399999999999999	0	45.00023407020682	-9.999999988573338	0	60.00051425031025	1.047206526557691	-4.999999851047217	0	0	45.00023407020682	-9.999999988573338	0	60.00051425031025	1.047206526557691	-4.999999851047217	0	0	-8.044297737331201	1.397158234844244	-0.4472919005148698	4.594246892194492	13.46972811759782	-14.86677863487948	0.002460375166803246	45.00000025533878	0	0	0	-15.00508582723283	0	75.00049156086668	45.00000025533878	0	0
7.48	8.188513483009595	8.258083679888852	62.96669795565495	0	0.9399999999999999	0	45.0002315749632	-9.999999988573338	0	60.00051041784143	1.047206459668492	-4.999999851047217	0	0	45.0002315749632	-9.999999988573338	0	60.00051041784143	1.047206459668492	-4.999999851047217	0	0	-8.05239771125078	1.390757397624794	-0.4307074244771602	-14.69960442261506	-29.48169582703546	-26.39056695953444	0.002016875088098706	45.00000025533882	0	0	0	-15.00505368898041	0	75.00048819357545	45.00000025533882	0	0
